<svg width="132" height="20" viewBox="0 0 132 20" fill="none" xmlns="http://www.w3.org/2000/svg">
<g clip-path="url(#clip0_3908_92842)">
<g clip-path="url(#clip1_3908_92842)">
<path d="M19.9713 7.70552C19.9024 7.49337 19.7191 7.33876 19.4984 7.30673L13.2983 6.40576L10.5254 0.787538C10.4268 0.587539 10.223 0.460938 10 0.460938C9.77699 0.460938 9.57332 0.587539 9.4746 0.787538L6.70165 6.40576L0.501673 7.30673C0.281009 7.33876 0.0976116 7.49337 0.0287057 7.70548C-0.0402394 7.91763 0.0172604 8.15048 0.176986 8.30614L4.66322 12.6793L3.60432 18.8544C3.56658 19.0743 3.65697 19.2964 3.8374 19.4275C3.93947 19.5016 4.06037 19.5394 4.18185 19.5394C4.27513 19.5394 4.36873 19.5172 4.45443 19.4721L9.99999 16.5565L15.5453 19.472C15.7428 19.5758 15.982 19.5586 16.1624 19.4275C16.3428 19.2964 16.4333 19.0742 16.3956 18.8543L15.3363 12.6793L19.823 8.3061C19.9827 8.15048 20.0403 7.91763 19.9713 7.70552Z" fill="#2196F3"/>
</g>
<g clip-path="url(#clip2_3908_92842)">
<path d="M47.9713 7.70552C47.9024 7.49337 47.7191 7.33876 47.4984 7.30673L41.2983 6.40576L38.5254 0.787538C38.4268 0.587539 38.223 0.460938 38 0.460938C37.777 0.460938 37.5733 0.587539 37.4746 0.787538L34.7016 6.40576L28.5017 7.30673C28.281 7.33876 28.0976 7.49337 28.0287 7.70548C27.9598 7.91763 28.0173 8.15048 28.177 8.30614L32.6632 12.6793L31.6043 18.8544C31.5666 19.0743 31.657 19.2964 31.8374 19.4275C31.9395 19.5016 32.0604 19.5394 32.1819 19.5394C32.2751 19.5394 32.3687 19.5172 32.4544 19.4721L38 16.5565L43.5453 19.472C43.7428 19.5758 43.982 19.5586 44.1624 19.4275C44.3428 19.2964 44.4333 19.0742 44.3956 18.8543L43.3363 12.6793L47.823 8.3061C47.9827 8.15048 48.0403 7.91763 47.9713 7.70552Z" fill="#2196F3"/>
</g>
<g clip-path="url(#clip3_3908_92842)">
<path d="M75.9713 7.70552C75.9024 7.49337 75.7191 7.33876 75.4984 7.30673L69.2983 6.40576L66.5254 0.787538C66.4268 0.587539 66.223 0.460938 66 0.460938C65.777 0.460938 65.5733 0.587539 65.4746 0.787538L62.7016 6.40576L56.5017 7.30673C56.281 7.33876 56.0976 7.49337 56.0287 7.70548C55.9598 7.91763 56.0173 8.15048 56.177 8.30614L60.6632 12.6793L59.6043 18.8544C59.5666 19.0743 59.657 19.2964 59.8374 19.4275C59.9395 19.5016 60.0604 19.5394 60.1819 19.5394C60.2751 19.5394 60.3687 19.5172 60.4544 19.4721L66 16.5565L71.5453 19.472C71.7428 19.5758 71.982 19.5586 72.1624 19.4275C72.3428 19.2964 72.4333 19.0742 72.3956 18.8543L71.3363 12.6793L75.823 8.3061C75.9827 8.15048 76.0403 7.91763 75.9713 7.70552Z" fill="#2196F3"/>
</g>
<g clip-path="url(#clip4_3908_92842)">
<path d="M103.971 7.70552C103.902 7.49337 103.719 7.33876 103.498 7.30673L97.2983 6.40576L94.5254 0.787538C94.4268 0.587539 94.223 0.460938 94 0.460938C93.777 0.460938 93.5733 0.587539 93.4746 0.787538L90.7016 6.40576L84.5017 7.30673C84.281 7.33876 84.0976 7.49337 84.0287 7.70548C83.9598 7.91763 84.0173 8.15048 84.177 8.30614L88.6632 12.6793L87.6043 18.8544C87.5666 19.0743 87.657 19.2964 87.8374 19.4275C87.9395 19.5016 88.0604 19.5394 88.1819 19.5394C88.2751 19.5394 88.3687 19.5172 88.4544 19.4721L94 16.5565L99.5453 19.472C99.7428 19.5758 99.982 19.5586 100.162 19.4275C100.343 19.2964 100.433 19.0742 100.396 18.8543L99.3363 12.6793L103.823 8.3061C103.983 8.15048 104.04 7.91763 103.971 7.70552Z" fill="#2196F3"/>
</g>
<g clip-path="url(#clip5_3908_92842)">
<path d="M131.971 7.70552C131.902 7.49337 131.719 7.33876 131.498 7.30673L125.298 6.40576L122.525 0.787538C122.427 0.587539 122.223 0.460938 122 0.460938C121.777 0.460938 121.573 0.587539 121.475 0.787538L118.702 6.40576L112.502 7.30673C112.281 7.33876 112.098 7.49337 112.029 7.70548C111.96 7.91763 112.017 8.15048 112.177 8.30614L116.663 12.6793L115.604 18.8544C115.567 19.0743 115.657 19.2964 115.837 19.4275C115.939 19.5016 116.06 19.5394 116.182 19.5394C116.275 19.5394 116.369 19.5172 116.454 19.4721L122 16.5565L127.545 19.472C127.743 19.5758 127.982 19.5586 128.162 19.4275C128.343 19.2964 128.433 19.0742 128.396 18.8543L127.336 12.6793L131.823 8.3061C131.983 8.15048 132.04 7.91763 131.971 7.70552Z" fill="#2196F3"/>
</g>
</g>
<defs>
<clipPath id="clip0_3908_92842">
<rect width="132" height="20" fill="white"/>
</clipPath>
<clipPath id="clip1_3908_92842">
<rect width="20" height="20" fill="white"/>
</clipPath>
<clipPath id="clip2_3908_92842">
<rect width="20" height="20" fill="white" transform="translate(28)"/>
</clipPath>
<clipPath id="clip3_3908_92842">
<rect width="20" height="20" fill="white" transform="translate(56)"/>
</clipPath>
<clipPath id="clip4_3908_92842">
<rect width="20" height="20" fill="white" transform="translate(84)"/>
</clipPath>
<clipPath id="clip5_3908_92842">
<rect width="20" height="20" fill="white" transform="translate(112)"/>
</clipPath>
</defs>
</svg>
